<svg xmlns="http://www.w3.org/2000/svg" width="18" height="18" viewBox="0 0 18 18">
  <path id="全屏" d="M81.993,83H79.4a.6.6,0,1,1,0-1.208h1.993a.4.4,0,0,0,.4-.4V79.4A.6.6,0,0,1,83,79.4v2.6A1.007,1.007,0,0,1,81.993,83Zm.4-13.792a.6.6,0,0,1-.6-.6V66.611a.4.4,0,0,0-.4-.4H79.4A.6.6,0,0,1,79.4,65h2.6A1.007,1.007,0,0,1,83,66.007v2.6A.6.6,0,0,1,82.4,69.208Zm-3.161.564v8.456a1.007,1.007,0,0,1-1.007,1.007H69.772a1.007,1.007,0,0,1-1.007-1.007V69.772a1.007,1.007,0,0,1,1.007-1.007h8.456A1.007,1.007,0,0,1,79.235,69.772Zm-1.208.6a.4.4,0,0,0-.4-.4H70.376a.4.4,0,0,0-.4.4v7.248a.4.4,0,0,0,.4.4h7.248a.4.4,0,0,0,.4-.4ZM68.6,66.208H66.611a.4.4,0,0,0-.4.4V68.6A.6.6,0,0,1,65,68.6v-2.6A1.007,1.007,0,0,1,66.007,65h2.6a.6.6,0,0,1,0,1.208Zm-3,12.584a.6.6,0,0,1,.6.6v1.993a.4.4,0,0,0,.4.4H68.6A.6.6,0,0,1,68.6,83h-2.6A1.007,1.007,0,0,1,65,81.993V79.4A.6.6,0,0,1,65.6,78.792Z" transform="translate(-65 -65)" fill="#888"/>
</svg>
