<svg xmlns="http://www.w3.org/2000/svg" width="18" height="18" viewBox="0 0 18 18">
  <g id="指标" transform="translate(23 0)">
    <path id="路径_155" data-name="路径 155" d="M-15.656,11.241l-3.025-3.016a1.573,1.573,0,0,0-.621-.194.881.881,0,0,0-.588.305l-.026.023-.348.233L-21.52,9.856l-1.156,1.274a.466.466,0,0,0-.107.652.427.427,0,0,0,.09.09l.027.026a.529.529,0,0,0,.737.105.527.527,0,0,0,.105-.106l2.653-2.662,3.114,3.1a.931.931,0,0,0,1.221-.006l3.563-3.574.788.785a.566.566,0,0,0,.362.08.4.4,0,0,0,.24-.26l.79-3.187a.964.964,0,0,1-.094-.218.59.59,0,0,0-.079-.179.558.558,0,0,0-.371-.087l-3.258.818-.025,0a.167.167,0,0,0-.2.147.146.146,0,0,0,0,.055l0,.017v.018a.568.568,0,0,0,.095.38l.889.882-3.43,3.321Z" fill="#888"/>
    <path id="路径_156" data-name="路径 156" d="M-8.456,0-19.571.016A3.438,3.438,0,0,0-23,3.455l.007,4.735a.656.656,0,0,0,.656.654.656.656,0,0,0,.654-.656l-.007-4.735a2.127,2.127,0,0,1,2.121-2.127L-8.454,1.31A2.127,2.127,0,0,1-6.326,3.431l.016,11.115a2.127,2.127,0,0,1-2.121,2.128l-11.116.016a2.127,2.127,0,0,1-2.127-2.121l-.007-.774a.656.656,0,0,0-.656-.654.655.655,0,0,0-.654.656l.007.774A3.438,3.438,0,0,0-19.545,18l11.116-.016A3.438,3.438,0,0,0-5,14.544L-5.016,3.429A3.438,3.438,0,0,0-8.456,0Z" fill="#888"/>
  </g>
</svg>
