<svg xmlns="http://www.w3.org/2000/svg" width="16.32" height="18" viewBox="0 0 16.32 18">
  <g id="设置" transform="translate(-136.21 -98.29)">
    <path id="路径_151" data-name="路径 151" d="M152.006,108.871a2.676,2.676,0,0,1,0-3.162,2.677,2.677,0,0,0-2.141-4.258,2.816,2.816,0,0,0-.308.017,2.675,2.675,0,0,1-2.738-1.581,2.676,2.676,0,0,0-4.9,0,2.675,2.675,0,0,1-2.738,1.581,2.87,2.87,0,0,0-.308-.017,2.678,2.678,0,0,0-2.141,4.258,2.676,2.676,0,0,1,0,3.162,2.677,2.677,0,0,0,2.141,4.258,2.814,2.814,0,0,0,.308-.017,2.675,2.675,0,0,1,2.738,1.581,2.676,2.676,0,0,0,4.9,0,2.675,2.675,0,0,1,2.738-1.581,2.87,2.87,0,0,0,.308.017A2.678,2.678,0,0,0,152.006,108.871Zm-1.626-.359a3.971,3.971,0,0,0,.576,1.128,1.338,1.338,0,0,1,.119,1.431,1.417,1.417,0,0,1-.49.549,1.3,1.3,0,0,1-.72.209,1.514,1.514,0,0,1-.167-.009,3.976,3.976,0,0,0-4.069,2.349,1.342,1.342,0,0,1-.524.616,1.423,1.423,0,0,1-1.469,0,1.344,1.344,0,0,1-.524-.616,3.976,3.976,0,0,0-4.069-2.349,1.571,1.571,0,0,1-.167.009,1.3,1.3,0,0,1-.72-.209,1.415,1.415,0,0,1-.49-.549,1.338,1.338,0,0,1,.119-1.431,3.976,3.976,0,0,0,0-4.7,1.338,1.338,0,0,1-.119-1.431,1.417,1.417,0,0,1,.49-.549,1.3,1.3,0,0,1,.72-.209,1.514,1.514,0,0,1,.167.009,3.976,3.976,0,0,0,4.069-2.349,1.342,1.342,0,0,1,.524-.616,1.423,1.423,0,0,1,1.469,0,1.343,1.343,0,0,1,.524.616,3.976,3.976,0,0,0,4.069,2.349,1.573,1.573,0,0,1,.167-.009,1.3,1.3,0,0,1,.72.209,1.415,1.415,0,0,1,.49.549,1.337,1.337,0,0,1-.119,1.431,3.978,3.978,0,0,0-.576,3.571Z" fill="#888"/>
    <path id="路径_152" data-name="路径 152" d="M368.727,365.54a3.187,3.187,0,1,0,3.187,3.187A3.187,3.187,0,0,0,368.727,365.54Zm0,5.073a1.886,1.886,0,1,1,1.886-1.886A1.888,1.888,0,0,1,368.727,370.613Z" transform="translate(-224.357 -261.455)" fill="#888"/>
  </g>
</svg>
