<svg xmlns="http://www.w3.org/2000/svg" xmlns:xlink="http://www.w3.org/1999/xlink" width="219.971" height="40.441" viewBox="0 0 219.971 40.441">
  <defs>
    <linearGradient id="linear-gradient" x1="0.299" y1="0.321" x2="0.793" y2="0.835" gradientUnits="objectBoundingBox">
      <stop offset="0" stop-color="#3a9fff"/>
      <stop offset="1" stop-color="#0e78ff"/>
    </linearGradient>
  </defs>
  <g id="LOGO" transform="translate(-2.945 -2.852)">
    <g id="logo-2" data-name="logo">
      <g id="组_182" data-name="组 182">
        <path id="路径_409" data-name="路径 409" d="M46.478,32.517a5.75,5.75,0,0,1-3.277.894c-.744,0-3.753-.06-4.736-2.889a7.03,7.03,0,0,1-.328-2.353V25.846h2.476v1.043a8.286,8.286,0,0,0,.238,2.77A2.346,2.346,0,0,0,43.2,31.178a2.543,2.543,0,0,0,2.413-1.371,2.939,2.939,0,0,0,.238-1.251c0-1.787-.8-2.532-1.966-3.724l-2.83-2.919c-1.638-1.7-2.413-2.83-2.413-5.272a7.578,7.578,0,0,1,.238-2c.417-1.37,1.579-2.889,4.647-2.889.715,0,3.544.03,4.259,2.741a11.052,11.052,0,0,1,.179,2.443v1.34H45.644c-.03-1.311-.03-.983-.03-1.728A2.286,2.286,0,0,0,44.482,14.2a2.712,2.712,0,0,0-1.1-.208,2.108,2.108,0,0,0-1.579.566,2.165,2.165,0,0,0-.417.566,3.6,3.6,0,0,0-.208,1.4,3.772,3.772,0,0,0,.179,1.221,7.881,7.881,0,0,0,1.906,2.532l3.306,3.515c.239.268.447.536.655.8a5.751,5.751,0,0,1,1.162,3.753C48.385,30.849,47.372,31.921,46.478,32.517Z" fill="#545456"/>
        <path id="路径_410" data-name="路径 410" d="M55.711,33.172a3.913,3.913,0,0,1-1.34.208,4.033,4.033,0,0,1-2.532-.745c-.834-.8-.775-2.264-.775-3.277,0-.357.03-.745.03-1.1V20.007H49.307V18.22h1.847V14.229h2.383V18.22h2.2v1.787h-2.2v9.621a2.087,2.087,0,0,0,.268,1.251c.179.268.417.476,1.1.476a2.591,2.591,0,0,0,.834-.119Z" fill="#545456"/>
        <path id="路径_411" data-name="路径 411" d="M65.361,28.674a9.061,9.061,0,0,1-.149,1.668c-.238,1.4-.983,3.038-4.051,3.038a3.847,3.847,0,0,1-3.515-1.638,6.832,6.832,0,0,1-.626-3.426V26.38c0-1.311,0-2.592.06-3.872a5.117,5.117,0,0,1,1.072-3.485,4.114,4.114,0,0,1,3.187-1.073c4.021,0,4.051,3.366,4.081,4.587.03,1.1.03,2.174,0,3.277C65.421,26.768,65.421,27.721,65.361,28.674Zm-2.442-6.166c-.03-1.073-.09-2.651-1.609-2.621a1.619,1.619,0,0,0-1.638,1.4,22.686,22.686,0,0,0-.149,3.694c0,1.191.03,2.412.03,3.6a7.171,7.171,0,0,0,.149,1.877,1.419,1.419,0,0,0,1.46,1.043c1.042,0,1.46-.6,1.638-1.549a33.951,33.951,0,0,0,.149-4.17c0-1.1,0-2.172-.03-3.273Z" fill="#545456"/>
        <path id="路径_412" data-name="路径 412" d="M75.071,32.13a4.1,4.1,0,0,1-3.4,1.251c-2.145,0-3.187-.953-3.574-1.817-.477-1.013-.536-2.77-.536-5.242,0-1.371.03-2.741.119-4.111a5.631,5.631,0,0,1,1.162-3.276,4.166,4.166,0,0,1,3.038-.983c1.37,0,2.74.268,3.485,1.489.626,1.013.655,1.966.655,4.17H73.761c0-.626,0-1.28-.06-1.936a2.455,2.455,0,0,0-.3-1.221,1.665,1.665,0,0,0-1.519-.715,1.636,1.636,0,0,0-1.757,1.5v.014a36.333,36.333,0,0,0-.179,4.438c0,1.043.03,2.085.06,3.128a4.41,4.41,0,0,0,.268,1.817,1.613,1.613,0,0,0,1.579.864,1.715,1.715,0,0,0,1.786-1.643v-.115c.03-.238.119-1.281.119-2.174h2.264C76.025,29.985,75.9,31.147,75.071,32.13Z" fill="#545456"/>
        <path id="路径_413" data-name="路径 413" d="M83.828,24l3.813,9.115H85.109L82.22,26.2,80.7,28.288v4.825H78.347V12.083H80.7v12.9l4.408-6.762h2.741Z" fill="#545456"/>
        <path id="路径_414" data-name="路径 414" d="M105.065,27.961a12.547,12.547,0,0,1-.119,1.817,3.758,3.758,0,0,1-2.473,3.277,7.049,7.049,0,0,1-2.323.357,4.9,4.9,0,0,1-3.187-.923,5.22,5.22,0,0,1-.983-1.073c-.8-1.221-.894-2.77-.894-5.689V22.361c0-1.191,0-2.353.03-3.545.03-1.609.03-3.9,1.1-5.332a5.183,5.183,0,0,1,4.14-1.728,4.744,4.744,0,0,1,3.515,1.34c.8.834,1.1,1.906,1.1,4.23,0,.447,0,.924-.03,1.37h-2.413c0-.745,0-1.519-.03-2.294a2.235,2.235,0,0,0-.8-2.026,2.141,2.141,0,0,0-1.34-.417,2.23,2.23,0,0,0-2.383,1.847,43.374,43.374,0,0,0-.3,6.911c0,1.579.03,3.128.09,4.706a6.156,6.156,0,0,0,.417,2.738A2.4,2.4,0,0,0,100.3,31.2a2.161,2.161,0,0,0,1.4-.447c.983-.745.953-2.413.953-3.485V25.722H105.1C105.094,26.47,105.094,27.215,105.065,27.961Z" fill="#545456"/>
        <path id="路径_415" data-name="路径 415" d="M115.608,28.674a9.061,9.061,0,0,1-.149,1.668c-.238,1.4-.983,3.038-4.051,3.038a3.847,3.847,0,0,1-3.515-1.638,6.832,6.832,0,0,1-.626-3.426V26.38c0-1.311,0-2.592.06-3.872a5.117,5.117,0,0,1,1.072-3.485,4.114,4.114,0,0,1,3.187-1.073c4.021,0,4.051,3.366,4.081,4.587.03,1.1.03,2.174,0,3.277C115.667,26.768,115.667,27.721,115.608,28.674Zm-2.443-6.166c-.03-1.073-.089-2.651-1.608-2.621a1.618,1.618,0,0,0-1.638,1.4,22.687,22.687,0,0,0-.149,3.694c0,1.191.03,2.412.03,3.6a7.171,7.171,0,0,0,.149,1.877,1.419,1.419,0,0,0,1.46,1.043c1.043,0,1.46-.6,1.638-1.549a33.949,33.949,0,0,0,.149-4.17c0-1.1,0-2.172-.031-3.273Z" fill="#545456"/>
        <path id="路径_416" data-name="路径 416" d="M118.049,15.6V12.53H120.4V15.6Zm0,17.515v-14.9H120.4V33.113Z" fill="#545456"/>
        <path id="路径_417" data-name="路径 417" d="M129.16,33.113v-10.9c0-.357.119-2.383-1.757-2.383a1.839,1.839,0,0,0-1.788,1.251,6.466,6.466,0,0,0-.208,2.413v9.621h-2.379v-14.9h2.264v1.37c.179-.209.328-.417.506-.6a4,4,0,0,1,2.711-1.042,2.827,2.827,0,0,1,2.562,1.281c.477.775.506,1.638.506,3.4V33.113Z" fill="#545456"/>
        <g id="组_318" data-name="组 318" transform="translate(11.452 -482.982)">
          <path id="路径_124" data-name="路径 124" d="M127.192,515.986v-20.9H136.4v2.338h-6.6v6.216h5.772v2.368H129.8v7.637h6.808v2.339Z" stroke="rgba(0,0,0,0)" stroke-width="1" fill="url(#linear-gradient)"/>
          <path id="路径_125" data-name="路径 125" d="M173.116,532.967l-2.338-5.861-2.22,5.861h-2.6l3.552-7.933-3.078-6.867h2.753l1.6,4.854,1.776-4.854h2.664l-3.108,6.867,3.7,7.933Z" transform="translate(-28.519 -16.98)" stroke="rgba(0,0,0,0)" stroke-width="1" fill="url(#linear-gradient)"/>
          <path id="路径_126" data-name="路径 126" d="M214.75,531.247a4.074,4.074,0,0,1-3.374,1.243c-2.131,0-3.167-.947-3.552-1.805-.474-1.006-.533-2.753-.533-5.21,0-1.362.03-2.723.118-4.085a5.594,5.594,0,0,1,1.154-3.256,4.142,4.142,0,0,1,3.019-.977c1.362,0,2.723.267,3.463,1.48.621,1.006.651,1.954.651,4.144h-2.25c0-.621,0-1.273-.059-1.924a2.442,2.442,0,0,0-.3-1.214,1.656,1.656,0,0,0-1.51-.71,1.626,1.626,0,0,0-1.746,1.51,36.226,36.226,0,0,0-.178,4.41c0,1.036.03,2.072.059,3.108a4.392,4.392,0,0,0,.266,1.806,1.6,1.6,0,0,0,1.569.858,1.7,1.7,0,0,0,1.776-1.747c.03-.237.118-1.273.118-2.161h2.25C215.7,529.116,215.579,530.27,214.75,531.247Z" transform="translate(-58.935 -16.238)" stroke="rgba(0,0,0,0)" stroke-width="1" fill="url(#linear-gradient)"/>
          <path id="路径_127" data-name="路径 127" d="M254,515.986v-8.91c0-.711,0-1.421-.03-2.131a2.35,2.35,0,0,0-.592-1.717,1.627,1.627,0,0,0-1.214-.444,1.717,1.717,0,0,0-1.3.5c-.711.769-.681,1.865-.681,3.818v8.881h-2.338v-20.9h2.338v7.43a3.655,3.655,0,0,1,1.954-1.48,5.513,5.513,0,0,1,1.036-.118,3.216,3.216,0,0,1,1.806.533c1.421.947,1.362,2.842,1.362,4.352v10.183Z" transform="translate(-88.773 0)" stroke="rgba(0,0,0,0)" stroke-width="1" fill="url(#linear-gradient)"/>
          <path id="路径_128" data-name="路径 128" d="M293.447,532.224v-1.776a3.139,3.139,0,0,1-3.078,2.042,3.4,3.4,0,0,1-1.776-.473,3.5,3.5,0,0,1-1.539-3.374,4.034,4.034,0,0,1,1.184-3.138,20.874,20.874,0,0,1,2.9-2.1,15.876,15.876,0,0,0,2.161-1.776v-.5c0-.533,0-2.072-1.806-2.072-1.894,0-1.776,1.51-1.776,2.1,0,.385.03.74.059,1.125h-2.161c0-.414,0-.858.03-1.273a3.569,3.569,0,0,1,.74-2.605,4.048,4.048,0,0,1,3.345-1.243,3.83,3.83,0,0,1,2.99,1.066,3.458,3.458,0,0,1,.74,1.243,9.1,9.1,0,0,1,.178,2.516v7.1a7.194,7.194,0,0,0,.267,2.634,2.025,2.025,0,0,0,.444.5Zm-.148-8.436c-.266.267-.562.533-.829.77-.237.178-.474.355-.74.533a9.029,9.029,0,0,0-1.539,1.3,3.268,3.268,0,0,0-.711,2.161c0,.237-.089,2.22,1.628,2.19a2.023,2.023,0,0,0,1.628-.858,3.937,3.937,0,0,0,.562-2.457Z" transform="translate(-117.622 -16.238)" stroke="rgba(0,0,0,0)" stroke-width="1" fill="url(#linear-gradient)"/>
          <path id="路径_129" data-name="路径 129" d="M335.608,532.224V521.39c0-.355.118-2.368-1.747-2.368a1.827,1.827,0,0,0-1.776,1.243,6.412,6.412,0,0,0-.207,2.4v9.561H329.51v-14.8h2.249v1.362c.178-.207.326-.414.5-.592a3.971,3.971,0,0,1,2.694-1.036,2.809,2.809,0,0,1,2.546,1.273c.473.77.5,1.628.5,3.374v10.42Z" transform="translate(-148.861 -16.238)" stroke="rgba(0,0,0,0)" stroke-width="1" fill="url(#linear-gradient)"/>
          <path id="路径_130" data-name="路径 130" d="M377.557,536.516a5.653,5.653,0,0,1-2.871.681,4.26,4.26,0,0,1-2.872-.947,2.919,2.919,0,0,1-.858-1.125,4.2,4.2,0,0,1-.3-1.717h2.19a2.818,2.818,0,0,0,.177,1.036,1.95,1.95,0,0,0,1.776.858,2.462,2.462,0,0,0,1.3-.326c.888-.592.8-1.717.8-2.575v-1.717l-.266.355a3.408,3.408,0,0,1-2.723,1.273,3.168,3.168,0,0,1-2.635-1.3c-.77-1.1-.74-2.783-.74-4.026,0-.977-.03-1.954-.03-2.93,0-.533,0-1.066.03-1.6a7.807,7.807,0,0,1,.74-3.819,3.238,3.238,0,0,1,2.931-1.48,3.1,3.1,0,0,1,2.871,1.569v-1.3h2.19v14.06c0,.533.03,1.066,0,1.6C379.214,535.214,378.475,535.983,377.557,536.516ZM376.965,525c0-.947.03-1.894-.06-2.871a7.244,7.244,0,0,0-.207-1.954,1.858,1.858,0,0,0-2.842-1.036c-.858.651-.918,2.1-.918,4.233v2.309c0,.918,0,1.835.059,2.783a2.179,2.179,0,0,0,.71,1.687,1.966,1.966,0,0,0,2.931-.829,9.887,9.887,0,0,0,.326-3.493Z" transform="translate(-179.029 -16.238)" stroke="rgba(0,0,0,0)" stroke-width="1" fill="url(#linear-gradient)"/>
          <path id="路径_131" data-name="路径 131" d="M420.123,531.241a3.788,3.788,0,0,1-3.256,1.332,3.709,3.709,0,0,1-3.7-1.983c-.563-1.1-.474-1.983-.5-4.262-.03-.918-.03-1.836-.03-2.753a24.423,24.423,0,0,1,.118-2.546c.207-1.717.592-2.368,1.273-2.931a4.1,4.1,0,0,1,2.723-.829,4.217,4.217,0,0,1,2.842.8,2.961,2.961,0,0,1,.888,1.036,9.464,9.464,0,0,1,.5,4.055v2.191h-5.95c-.03.858-.03,1.746,0,2.6a6.3,6.3,0,0,0,.148,1.391,1.654,1.654,0,0,0,1.776,1.3,1.543,1.543,0,0,0,1.1-.326c.592-.444.74-1.184.711-2.605h2.22A4.836,4.836,0,0,1,420.123,531.241Zm-1.362-8.406c0-.563,0-1.154-.03-1.717-.059-1.154-.533-2.042-1.835-2.042a1.57,1.57,0,0,0-1.569.947,6.918,6.918,0,0,0-.3,2.812v.622h3.73Z" transform="translate(-210.021 -16.321)" stroke="rgba(0,0,0,0)" stroke-width="1" fill="url(#linear-gradient)"/>
        </g>
      </g>
    </g>
    <g id="组_4806-2" data-name="组 4806-2">
      <g id="组_4803" data-name="组 4803">
        <path id="路径_6940" data-name="路径 6940" d="M29.841,21.413,17.461,19.3,22.109,2.852,2.945,24.729l12.38,2.115L10.677,43.293Z" fill="url(#linear-gradient)"/>
      </g>
    </g>
  </g>
</svg>
