<svg xmlns="http://www.w3.org/2000/svg" width="18.642" height="16" viewBox="0 0 18.642 16">
  <g id="资产" transform="translate(0 -34.55)">
    <path id="路径_110" data-name="路径 110" d="M17.6,41.508h-.443V38.843a1.975,1.975,0,0,0-1.973-1.973h-.409l0-.99a1.331,1.331,0,0,0-1.33-1.33H1.617A1.618,1.618,0,0,0,0,36.144V49.22a1.331,1.331,0,0,0,1.33,1.33H15.186a1.975,1.975,0,0,0,1.973-1.973V45.909H17.6a1.041,1.041,0,0,0,1.04-1.04V42.548A1.047,1.047,0,0,0,17.6,41.508ZM1.617,35.468H13.446a.413.413,0,0,1,.413.409l0,.994H1.617a.7.7,0,0,1,0-1.4Zm14.62,13.106a1.057,1.057,0,0,1-1.055,1.055H1.327a.414.414,0,0,1-.413-.413V37.628a1.61,1.61,0,0,0,.7.161H15.182a1.057,1.057,0,0,1,1.055,1.055v2.665H13.106a1.041,1.041,0,0,0-1.04,1.04v2.321a1.041,1.041,0,0,0,1.04,1.04h3.131Zm1.483-3.7a.121.121,0,0,1-.122.122H13.11a.121.121,0,0,1-.122-.122V42.548a.123.123,0,0,1,.122-.122H17.6a.123.123,0,0,1,.122.122v2.321Z" transform="translate(0 0)" fill="#000"/>
  </g>
</svg>
