<svg id="_language" data-name=" language" xmlns="http://www.w3.org/2000/svg" width="16" height="16" viewBox="0 0 16 16">
  <path id="路径_111" data-name="路径 111" d="M13.657,2.343A8,8,0,0,0,2.343,13.657,8,8,0,0,0,13.657,2.343ZM8.469,5.009a14.616,14.616,0,0,0,2.444-.276,13.235,13.235,0,0,1,.377,2.8H8.469Zm0-.938V1.016a3.487,3.487,0,0,1,1.775,1.868,8.258,8.258,0,0,1,.4.948,13.73,13.73,0,0,1-2.174.239ZM7.531,1.016V4.071a13.738,13.738,0,0,1-2.174-.239,8.255,8.255,0,0,1,.4-.948A3.487,3.487,0,0,1,7.531,1.016Zm0,3.992V7.531H4.711a13.237,13.237,0,0,1,.377-2.8,14.616,14.616,0,0,0,2.444.276ZM3.773,7.531H.953A7,7,0,0,1,2.326,3.792a9.587,9.587,0,0,0,1.85.721,14.216,14.216,0,0,0-.4,3.018Zm0,.938a14.215,14.215,0,0,0,.4,3.018,9.587,9.587,0,0,0-1.85.721A7,7,0,0,1,.953,8.469Zm.938,0H7.531v2.523a14.616,14.616,0,0,0-2.444.276A13.235,13.235,0,0,1,4.711,8.469Zm2.821,3.461v3.054a3.487,3.487,0,0,1-1.775-1.868,8.258,8.258,0,0,1-.4-.948A13.73,13.73,0,0,1,7.531,11.929Zm.938,3.054V11.929a13.738,13.738,0,0,1,2.174.239,8.255,8.255,0,0,1-.4.948,3.487,3.487,0,0,1-1.775,1.868Zm0-3.992V8.469h2.821a13.237,13.237,0,0,1-.377,2.8,14.616,14.616,0,0,0-2.444-.276Zm3.758-2.523h2.82a7,7,0,0,1-1.373,3.739,9.587,9.587,0,0,0-1.85-.721A14.215,14.215,0,0,0,12.227,8.469Zm0-.937a14.215,14.215,0,0,0-.4-3.018,9.588,9.588,0,0,0,1.85-.721,7,7,0,0,1,1.373,3.739Zm.819-4.472a8.881,8.881,0,0,1-1.487.556,9.255,9.255,0,0,0-.477-1.151,6.533,6.533,0,0,0-.7-1.116,7.039,7.039,0,0,1,2.609,1.658l.052.053ZM5.615,1.349a6.533,6.533,0,0,0-.7,1.116,9.253,9.253,0,0,0-.477,1.151,8.883,8.883,0,0,1-1.487-.556l.052-.053A7.039,7.039,0,0,1,5.615,1.349ZM2.954,12.941a8.881,8.881,0,0,1,1.487-.556,9.25,9.25,0,0,0,.477,1.151,6.533,6.533,0,0,0,.7,1.116,7.039,7.039,0,0,1-2.609-1.658Zm7.431,1.711a6.532,6.532,0,0,0,.7-1.116,9.253,9.253,0,0,0,.477-1.151,8.884,8.884,0,0,1,1.487.556l-.052.053A7.038,7.038,0,0,1,10.385,14.651Z" fill="#000"/>
</svg>
