<svg xmlns="http://www.w3.org/2000/svg" width="12.419" height="16" viewBox="0 0 12.419 16">
  <g id="订单" transform="translate(-57)">
    <path id="路径_106" data-name="路径 106" d="M173.086,350.161h-4.618a.468.468,0,1,0,0,.936h4.618a.468.468,0,1,0,0-.936Z" transform="translate(-107.536 -340.173)" fill="#000"/>
    <path id="路径_109" data-name="路径 109" d="M173.086,350.161h-4.618a.468.468,0,1,0,0,.936h4.618a.468.468,0,1,0,0-.936Z" transform="translate(-107.536 -343.173)" fill="#000"/>
    <path id="路径_108" data-name="路径 108" d="M67.672,1.608v-.2A1.407,1.407,0,0,0,66.268,0H60.152a1.407,1.407,0,0,0-1.4,1.406v.2A2.35,2.35,0,0,0,57,3.875v9.781A2.345,2.345,0,0,0,59.34,16h7.739a2.345,2.345,0,0,0,2.34-2.344V3.875A2.35,2.35,0,0,0,67.672,1.608Zm-7.988-.2a.469.469,0,0,1,.468-.469h6.116a.469.469,0,0,1,.468.469V2.563a.469.469,0,0,1-.468.469H60.152a.469.469,0,0,1-.468-.469Zm8.8,12.25a1.407,1.407,0,0,1-1.4,1.406H59.34a1.407,1.407,0,0,1-1.4-1.406V3.875A1.41,1.41,0,0,1,58.748,2.6a1.406,1.406,0,0,0,1.4,1.369h6.116a1.406,1.406,0,0,0,1.4-1.369,1.41,1.41,0,0,1,.812,1.275Z" fill="#000"/>
  </g>
</svg>
