<svg xmlns="http://www.w3.org/2000/svg" width="23.75" height="23.75" viewBox="0 0 23.75 23.75">
  <g id="提币地址管理" transform="translate(-244.125 -204.125)">
    <path id="路径_134" data-name="路径 134" d="M256,219.591a4.344,4.344,0,1,0-4.344-4.344A4.348,4.348,0,0,0,256,219.591Zm0-7.531a3.188,3.188,0,1,1-3.188,3.187A3.19,3.19,0,0,1,256,212.06Z"/>
    <path id="路径_135" data-name="路径 135" d="M265.037,204.125H246.962a2.837,2.837,0,0,0-2.837,2.837v3.013a2.839,2.839,0,0,0,2.837,2.838h1.682v12.978a2.084,2.084,0,0,0,2.084,2.084h10.543a2.084,2.084,0,0,0,2.085-2.084V212.813h1.681a2.841,2.841,0,0,0,2.838-2.838v-3.013a2.839,2.839,0,0,0-2.838-2.837ZM262.2,225.791a.927.927,0,0,1-.929.928H250.728a.929.929,0,0,1-.928-.928V209.047h12.4Zm4.519-15.816a1.68,1.68,0,0,1-1.682,1.681h-1.681v-2.609h.928a.578.578,0,1,0,0-1.156H247.716a.578.578,0,1,0,0,1.156h.928v2.609h-1.682a1.68,1.68,0,0,1-1.681-1.681v-3.013a1.681,1.681,0,0,1,1.681-1.681h18.075a1.682,1.682,0,0,1,1.682,1.681Z"/>
    <path id="路径_136" data-name="路径 136" d="M252.234,224.109h7.532a.578.578,0,1,0,0-1.156h-7.532a.578.578,0,0,0,0,1.156Z"/>
  </g>
</svg>
