<svg xmlns="http://www.w3.org/2000/svg" width="14.657" height="18" viewBox="0 0 14.657 18">
  <path id="Apple_Store" data-name="Apple Store" d="M107.319,9.564a4.074,4.074,0,0,1,1.943-3.427,4.2,4.2,0,0,0-3.291-1.784c-1.4-.142-2.735.825-3.446.825s-1.807-.8-2.97-.783a4.4,4.4,0,0,0-3.723,2.257c-1.587,2.755-.407,6.835,1.141,9.069.756,1.094,1.658,2.321,2.841,2.278,1.14-.046,1.571-.737,2.949-.737s1.765.737,2.972.715c1.226-.023,2-1.114,2.755-2.211a9.916,9.916,0,0,0,1.247-2.56,3.975,3.975,0,0,1-2.415-3.641Zm-2.266-6.69A3.966,3.966,0,0,0,105.989,0a4.038,4.038,0,0,0-2.651,1.363,3.772,3.772,0,0,0-.956,2.785,3.34,3.34,0,0,0,2.67-1.274Z" transform="translate(-95.077)"/>
</svg>
