<svg xmlns="http://www.w3.org/2000/svg" width="15.418" height="18" viewBox="0 0 15.418 18">
  <path id="Google_Play" data-name="Google Play" d="M77.929,9.087c-1.614,0-3.228.056-4.842.056H68.274c-.187,0-.172-.106-.172.081v6.949c0,.065-.006.131,0,.2a1.191,1.191,0,0,0,1.154,1.089c.232,0,.464.008.7,0,.131-.006.16.036.159.162-.006.744,0,1.488,0,2.233a1.088,1.088,0,0,0,.548,1,1.112,1.112,0,0,0,1.683-.964c.005-.763,0-1.526,0-2.288,0-.106.022-.144.137-.142.4.007.809.008,1.214,0,.129,0,.152.042.152.16-.005.753,0,1.507,0,2.26a1.148,1.148,0,0,0,.024.277,1.112,1.112,0,0,0,2.194-.267q0-1.061,0-2.121c0-.306,0-.3.307-.307a3.754,3.754,0,0,0,.779-.024,1.219,1.219,0,0,0,.947-1.261c0-2.325,0-4.625,0-6.95C78.091,9.092,78.056,9.087,77.929,9.087Zm2.777.979a2.4,2.4,0,0,0-.018-.291,1.11,1.11,0,0,0-2.209.11c-.008.79,0,1.581,0,2.371s-.006,1.6,0,2.4a1.089,1.089,0,0,0,.8,1.007,1.117,1.117,0,0,0,1.421-1.1Q80.709,12.312,80.707,10.066ZM67.649,9.623a1.233,1.233,0,0,0-1.3-.793,1.185,1.185,0,0,0-1.058,1.113v2.329c0,.772.089,1.544.09,2.315a1.145,1.145,0,0,0,.06.222,1.131,1.131,0,0,0,1.269.883,1.1,1.1,0,0,0,.966-1.108c0-1.548.006-3.1.006-4.644A1.091,1.091,0,0,0,67.649,9.623Zm10.2-2.388a4.652,4.652,0,0,0-2.2-2.529c-.093-.052-.1-.086-.049-.176.232-.412.456-.83.685-1.244.053-.1.079-.184-.03-.254-.087-.056-.173-.016-.242.109-.231.419-.462.838-.687,1.26-.047.089-.09.1-.183.063a5.4,5.4,0,0,0-4.123,0c-.089.038-.127.02-.171-.063-.189-.357-.386-.709-.581-1.064-.047-.086-.093-.172-.143-.255a.146.146,0,0,0-.194-.061.137.137,0,0,0-.079.173.424.424,0,0,0,.049.114c.22.4.435.809.664,1.208.062.109.031.141-.063.2a4.517,4.517,0,0,0-2.428,3.775c-.008.123.021.165.155.165,1.614-.005,3.227,0,4.841,0s3.237,0,4.855,0c.133,0,.177-.029.168-.167A4.552,4.552,0,0,0,77.847,7.235Zm-7.053-.393a.42.42,0,0,1-.41-.439.421.421,0,0,1,.842.023A.417.417,0,0,1,70.794,6.841Zm4.559,0a.428.428,0,0,1-.416-.434.423.423,0,0,1,.845.015A.421.421,0,0,1,75.354,6.841Z" transform="translate(-65.289 -3.008)"/>
</svg>
