<svg xmlns="http://www.w3.org/2000/svg" width="24" height="22.499" viewBox="0 0 24 22.499">
  <path id="登录密码" d="M23.133,53.219h-15a3,3,0,0,1-3-3v-3h1.5v3a1.5,1.5,0,0,0,1.5,1.5h15a1.5,1.5,0,0,0,1.5-1.5V33.72a1.5,1.5,0,0,0-1.5-1.5h-15a1.5,1.5,0,0,0-1.5,1.5v3h-1.5v-3a3,3,0,0,1,3-3h15a3,3,0,0,1,3,3v16.5A3,3,0,0,1,23.133,53.219ZM16.64,37.288a.75.75,0,1,1,1.061-1.06L22.876,41.4a.866.866,0,0,1,0,1.136L17.7,47.712a.75.75,0,0,1-1.061-1.061l3.932-3.932H2.883a.75.75,0,1,1,0-1.5h17.69Z" transform="translate(-2.133 -30.72)" fill="#1c1c1c"/>
</svg>
