<svg xmlns="http://www.w3.org/2000/svg" width="60" height="54.027" viewBox="0 0 60 54.027">
  <path id="暂无数据" d="M44.514,55.166H14.3a1.2,1.2,0,0,1,0-2.4h5.442a4.769,4.769,0,0,1-.638-2.394V15.56a4.8,4.8,0,0,1,4.8-4.794h3.6V9.561a4.8,4.8,0,0,1,4.8-4.794H61.1a4.794,4.794,0,0,1,4.8,4.794V44.372a4.771,4.771,0,0,1-.64,2.394h6.638a1.2,1.2,0,1,1,0,2.4h-14.4v1.206a4.771,4.771,0,0,1-.64,2.394h.643a1.2,1.2,0,0,1,0,2.4H51.2a2.4,2.4,0,0,1-3.762,2.922Zm4.387-2.4h3.816a2.392,2.392,0,0,0,2.39-2.406V15.5a2.324,2.324,0,0,0-2.316-2.338H23.824A2.327,2.327,0,0,0,21.508,15.5V50.36A2.4,2.4,0,0,0,23.9,52.766H42.113l-.617-.618a2.4,2.4,0,0,1-.624-2.32l-1.133-1.134a8.414,8.414,0,1,1,1.7-1.7l1.134,1.134a2.392,2.392,0,0,1,2.32.623L48.9,52.766Zm8.606-6h3.611a2.4,2.4,0,0,0,2.389-2.4V9.566a2.392,2.392,0,0,0-2.389-2.4H32.3a2.4,2.4,0,0,0-2.388,2.4v1.2H52.7a4.794,4.794,0,0,1,4.8,4.794ZM38.951,46.21a6,6,0,1,0-8.486,0A6,6,0,0,0,38.951,46.21ZM26.308,17.966a1.2,1.2,0,0,1,1.2-1.2h13.2a1.2,1.2,0,0,1,0,2.4h-13.2a1.2,1.2,0,0,1-1.2-1.2Zm0,6a1.2,1.2,0,0,1,1.192-1.2H46.716a1.2,1.2,0,0,1,0,2.4H27.5a1.193,1.193,0,0,1-1.192-1.2Zm0,6a1.2,1.2,0,0,1,1.2-1.2h8.4a1.2,1.2,0,0,1,0,2.4h-8.4a1.2,1.2,0,0,1-1.2-1.2Z" transform="translate(-13.108 -4.767)" fill="#d6d6d6"/>
</svg>
